<svg xmlns="http://www.w3.org/2000/svg" viewBox="0 0 48 48" fill="none">
  <defs>
    <linearGradient id="jira-top-right" x1="48" y1="12" x2="20" y2="40" gradientUnits="userSpaceOnUse">
      <stop offset="0.18" stop-color="#0052CC"/>
      <stop offset="1" stop-color="#2684FF"/>
    </linearGradient>
    <linearGradient id="jira-bottom-left" x1="0" y1="36" x2="28" y2="8" gradientUnits="userSpaceOnUse">
      <stop offset="0.18" stop-color="#0052CC"/>
      <stop offset="1" stop-color="#2684FF"/>
    </linearGradient>
  </defs>
  <!-- Outer diamond -->
  <path d="M23.1 1.6L0.7 23.9c-0.9 0.9-0.9 2.4 0 3.3L23.1 49.4c0.9 0.9 2.4 0.9 3.3 0l22.4-22.2c0.9-0.9 0.9-2.4 0-3.3L26.4 1.6C25.5 0.7 24 0.7 23.1 1.6zm0.7 6.3l12.5 12.4L24.3 32.6 11.8 20.3z" fill="#2684FF"/>
  <!-- Left half — darker gradient -->
  <path d="M24.3 7.9L11.8 20.3l12.5 12.3V7.9z" fill="url(#jira-bottom-left)"/>
  <!-- Right half — lighter gradient -->
  <path d="M24.3 7.9l12.5 12.4-12.5 12.3V7.9z" fill="url(#jira-top-right)"/>
</svg>
